PathFileType	4	(X/Y/Z)	Apose_0-50.trc
DataRate	CameraRate	NumFrames	NumMarkers	Units	OrigDataRate	OrigDataStartFrame	OrigNumFrames
30	30	4	22	m	30	0	50
Frame#	Time	Hip			RHip			RKnee			RAnkle			RBigToe			RSmallToe			RHeel			LHip			LKnee			LAnkle			LBigToe			LSmallToe			LHeel			Neck			Head			Nose			RShoulder			RElbow			RWrist			LShoulder			LElbow			LWrist		
		X1	Y1	Z1	X2	Y2	Z2	X3	Y3	Z3	X4	Y4	Z4	X5	Y5	Z5	X6	Y6	Z6	X7	Y7	Z7	X8	Y8	Z8	X9	Y9	Z9	X10	Y10	Z10	X11	Y11	Z11	X12	Y12	Z12	X13	Y13	Z13	X14	Y14	Z14	X15	Y15	Z15	X16	Y16	Z16	X17	Y17	Z17	X18	Y18	Z18	X19	Y19	Z19	X20	Y20	Z20	X21	Y21	Z21	X22	Y22	Z22
1	0.0333333333333333	0.04884490423804046	0.9202655462016679	0.37048620106240954	0.04524449917644183	0.8804007370764121	0.47953712139965887	0.012364247822516324	0.5099959396140147	0.4958903969494598	-0.004010537040322212	0.1129968169890091	0.5170117263614055	0.1888708310685356	0.04839402782917579	0.5645603977796171	0.15177444853174463	0.023582907337197003	0.6138575059585197	-0.04307875208916963	0.04272326178358588	0.4977280290177705	0.0491840603980971	0.8800909159396773	0.2640938211356318	0.0260736387917168	0.5086237105431435	0.23056500537365562	0.0019319289136610497	0.12318325704396976	0.2072208769112445	0.2134302687024098	0.047979044513652605	0.18624243741121524	0.1756176935190746	0.029436471634710956	0.1397710154469055	-0.038295191740299515	0.046684953202391535	0.2199653091407878	0.04452696608773601	1.5785604737515886	0.35709939328742485	0.23877484637970234	1.8151063683850799	0.25974644878966674	0.2091671022284279	1.6435263141050702	0.3294489158697072	0.025757257662750586	1.4884761047934585	0.5502230328960498	0.10871633695833893	1.2309191994496846	0.730784404390631	0.1772886552008126	1.0373965241299983	0.8909307865071401	0.0004203318732406285	1.4792867958365115	0.16855074027538397	0.025733809555239316	1.2237646478446538	0.010735722266230149	0.08117027253738919	1.0186452039271985	-0.13391832887661492
2	0.0666666666666666	0.04558371473851852	0.9210758032070273	0.36901715712852934	0.04007370874369112	0.8809645323861143	0.4765843893959957	0.011216509464173572	0.509028585023671	0.4973128897936008	-0.004051769015307253	0.11208034937654904	0.5170696251194091	0.19004743160432047	0.04252830140108529	0.56238187521231	0.15018220079697556	0.026923779958193412	0.6191160446103601	-0.04150340431929514	0.04052330533883325	0.49777361920249724	0.04367409474950048	0.8810195269163661	0.2605926870895451	0.022630837738477842	0.5086955949875153	0.2304065625450617	0.0035420995918641314	0.12080203830648294	0.20783873013040904	0.21503806052876867	0.04629391374271561	0.18799800454292093	0.1716718058294251	0.031718963388305696	0.13419587012069586	-0.03985992974022998	0.047076209651587556	0.2159851124054574	0.04953442491226265	1.580443461027943	0.35838779502373463	0.2590737555662236	1.7993731634788928	0.27025946673923185	0.21836401653275708	1.622457162709451	0.33075729380167473	0.025287902414619107	1.4883428461360382	0.5478936806794504	0.10170344853829197	1.2315011852869384	0.7291261027440408	0.16485906389407542	1.0392070102114792	0.8928391609255895	0.0041374534729101955	1.478824355019442	0.16345170266054945	0.02195569571662639	1.2250696754152801	0.009423347628173083	0.0713845947493484	1.0166969542406732	-0.13853624430567088
3	0.1	0.04226932963665963	0.9218659203680187	0.3675683063791226	0.035185329409071625	0.8817705008456187	0.4738493213926569	0.009726929106742065	0.50823780955582	0.4985277700243309	-0.00412194202088303	0.11128737112477748	0.5169800388670641	0.1917154502059777	0.03767310715308212	0.5613126252422058	0.14919933692831996	0.02888888883817397	0.6234984318670842	-0.04019834388552217	0.038724814305076266	0.4978441960503073	0.03853950298144458	0.8824207087483305	0.2573960958328813	0.01914532658966138	0.5089150033220238	0.23013648568117745	0.004778757118480443	0.11893900180728613	0.2084057948535872	0.21647368647308324	0.04513954086701576	0.18944278742860446	0.1686692713812519	0.03345877219319146	0.12979467876251585	-0.041474509154346376	0.04776733921066432	0.2118698106967206	0.053817854527769916	1.5810724596300278	0.35916549329357883	0.27763387743689105	1.7850784080269404	0.279434021375948	0.22978730638664013	1.6049905139391027	0.33188448191229775	0.02478074150790342	1.4885377930272194	0.5455984571459859	0.09478710332478191	1.2320226278992905	0.7278040552923427	0.15334210654200545	1.0408462148833322	0.894771491692842	0.007711146805285946	1.4786516975186008	0.15927079238885378	0.01829835755362502	1.2263581341443057	0.008024310640348403	0.062185582948218486	1.0150323504242131	-0.142722963200101
4	0.1333333333333333	0.03913026419598585	0.922628129792204	0.36620865831176	0.030962295151587122	0.882946287306019	0.4714671286700125	0.007871827706694368	0.5077712711606567	0.4993812192704235	-0.00427058141496743	0.11075435105319473	0.5167317024558986	0.1939447805998271	0.03410359505468061	0.5616779025888465	0.14911809923270472	0.02883372901761752	0.6264865623784139	-0.039358232825223716	0.0375721116822759	0.49804844195895326	0.03415252865522716	0.8845238732649554	0.25466839283123	0.01573573626270206	0.5093533101057433	0.22973311907169175	0.005382076016998338	0.11790598612007006	0.20880104864218293	0.21746381371649978	0.04457727379010065	0.19051838609226315	0.16691533404956652	0.03444603430281058	0.1270871031726693	-0.0430312583256072	0.04876513864248769	0.20780583226927155	0.05670725503824171	1.5796445502004928	0.3590365079372813	0.2901350669068145	1.7734802569137071	0.28868858381857193	0.2449017556529959	1.5941960849752865	0.332821831989979	0.024094181586720824	1.4891706501128992	0.5433584131320086	0.08803142339514837	1.2323901111465598	0.7268729304594311	0.14366371988791007	1.0421949332444933	0.896587834400555	0.010974887529013726	1.4788476870501175	0.156519487637618	0.015112055542563795	1.2275123175621907	0.006697956056687099	0.05445909445056026	1.0137121954456412	-0.14613042647394864
